<svg width="22" height="17" viewBox="0 0 22 17" fill="none" xmlns="http://www.w3.org/2000/svg">
<g clip-path="url(#clip0_304_13647)">
<path d="M7.3294 0.577227C6.03552 0.862941 5.04776 1.18131 3.82736 1.69968C3.62736 1.78539 3.5947 1.82213 3.31307 2.26702C1.96613 4.39764 1.09266 6.58947 0.696743 8.83845C0.492662 10.0099 0.455927 10.5201 0.460009 11.965C0.46409 12.7038 0.480417 13.414 0.500825 13.5364L0.533478 13.7568L1.06409 14.1201C2.39062 15.0221 3.77021 15.716 5.21511 16.2099C5.51307 16.3119 5.77838 16.3854 5.80287 16.3772C5.90491 16.3364 6.92123 14.716 6.92123 14.5936C6.92123 14.5772 6.81511 14.5242 6.68858 14.4752C6.36613 14.3487 5.32123 13.8303 5.25185 13.7609C5.18246 13.6915 5.19878 13.667 5.41919 13.5078L5.5947 13.3813L6.00287 13.5568C8.15797 14.4752 10.6192 14.7731 12.9008 14.3895C13.9498 14.214 14.9049 13.9242 16.0274 13.4425C16.1702 13.3813 16.1743 13.3813 16.3539 13.5242C16.4518 13.6017 16.5335 13.6874 16.5335 13.7119C16.5335 13.7691 15.6804 14.218 15.2274 14.3976C15.0478 14.4711 14.8845 14.5446 14.8641 14.5609C14.7825 14.6344 15.8396 16.3895 15.9661 16.3936C15.9947 16.3936 16.2314 16.3201 16.4967 16.2262C18.0029 15.7078 19.362 15.0262 20.6967 14.1201L21.2274 13.7568L21.2559 13.5364C21.2682 13.414 21.2927 12.8874 21.309 12.3731C21.4233 8.77315 20.4927 5.49151 18.4437 2.26294L18.1416 1.78947L17.5825 1.55682C16.5498 1.12825 15.2029 0.720084 14.211 0.536411L13.8437 0.467023L13.7743 0.564982C13.7335 0.613962 13.6029 0.867023 13.4845 1.12417L13.2682 1.58539L13.0641 1.5609C12.9539 1.54866 12.6845 1.516 12.4723 1.48743C11.9661 1.42213 9.8396 1.42213 9.30899 1.48743C9.0845 1.51192 8.81103 1.54457 8.69674 1.5609L8.49266 1.58131L8.22736 1.03845C7.91715 0.405798 7.97021 0.43437 7.3294 0.577227ZM8.16205 7.30784C8.69674 7.56906 9.0845 8.07927 9.23144 8.70784C9.31307 9.0507 9.28858 9.61804 9.17429 9.94866C8.70491 11.3527 7.16613 11.7772 6.16613 10.7813C5.51307 10.1282 5.35389 9.07111 5.77838 8.20172C6.01103 7.73233 6.39062 7.38947 6.87634 7.22213C7.10082 7.14049 7.20287 7.12825 7.50491 7.14049C7.81511 7.15682 7.90491 7.17723 8.16205 7.30784ZM15.109 7.31192C15.8069 7.65478 16.2274 8.36906 16.2274 9.20988C16.2274 9.82213 16.0355 10.3282 15.6478 10.7405C14.5865 11.8793 12.8723 11.2834 12.5294 9.65886C12.3498 8.8058 12.7212 7.85478 13.411 7.41396C13.7457 7.19764 14.0274 7.12417 14.4437 7.14457C14.758 7.15682 14.8437 7.17723 15.109 7.31192Z" fill="#FBFBFB"/>
</g>
<defs>
<clipPath id="clip0_304_13647">
<rect width="20.898" height="16" fill="white" transform="translate(0.431396 0.43457)"/>
</clipPath>
</defs>
</svg>
