<svg width="17" height="17" viewBox="0 0 17 17" fill="none" xmlns="http://www.w3.org/2000/svg">
<g clip-path="url(#clip0_304_13639)">
<path d="M8.4314 1.8752C10.5689 1.8752 10.822 1.88457 11.6626 1.92207C12.4439 1.95645 12.8658 2.0877 13.147 2.19707C13.5189 2.34082 13.7876 2.51582 14.0658 2.79395C14.347 3.0752 14.5189 3.34082 14.6626 3.7127C14.772 3.99395 14.9033 4.41895 14.9376 5.19707C14.9751 6.04082 14.9845 6.29395 14.9845 8.42832C14.9845 10.5658 14.9751 10.8189 14.9376 11.6596C14.9033 12.4408 14.772 12.8627 14.6626 13.1439C14.5189 13.5158 14.3439 13.7846 14.0658 14.0627C13.7845 14.3439 13.5189 14.5158 13.147 14.6596C12.8658 14.7689 12.4408 14.9002 11.6626 14.9346C10.8189 14.9721 10.5658 14.9814 8.4314 14.9814C6.2939 14.9814 6.04077 14.9721 5.20015 14.9346C4.4189 14.9002 3.99702 14.7689 3.71577 14.6596C3.3439 14.5158 3.07515 14.3408 2.79702 14.0627C2.51577 13.7814 2.3439 13.5158 2.20015 13.1439C2.09077 12.8627 1.95952 12.4377 1.92515 11.6596C1.88765 10.8158 1.87827 10.5627 1.87827 8.42832C1.87827 6.29082 1.88765 6.0377 1.92515 5.19707C1.95952 4.41582 2.09077 3.99395 2.20015 3.7127C2.3439 3.34082 2.5189 3.07207 2.79702 2.79395C3.07827 2.5127 3.3439 2.34082 3.71577 2.19707C3.99702 2.0877 4.42202 1.95645 5.20015 1.92207C6.04077 1.88457 6.2939 1.8752 8.4314 1.8752ZM8.4314 0.43457C6.25952 0.43457 5.98765 0.443945 5.13452 0.481445C4.28452 0.518945 3.70015 0.656445 3.1939 0.85332C2.66577 1.05957 2.2189 1.33145 1.77515 1.77832C1.32827 2.22207 1.0564 2.66895 0.850147 3.19395C0.653271 3.70332 0.515771 4.28457 0.478271 5.13457C0.440771 5.99082 0.431396 6.2627 0.431396 8.43457C0.431396 10.6064 0.440771 10.8783 0.478271 11.7314C0.515771 12.5814 0.653271 13.1658 0.850147 13.6721C1.0564 14.2002 1.32827 14.6471 1.77515 15.0908C2.2189 15.5346 2.66577 15.8096 3.19077 16.0127C3.70015 16.2096 4.2814 16.3471 5.1314 16.3846C5.98452 16.4221 6.2564 16.4314 8.42827 16.4314C10.6001 16.4314 10.872 16.4221 11.7251 16.3846C12.5751 16.3471 13.1595 16.2096 13.6658 16.0127C14.1908 15.8096 14.6376 15.5346 15.0814 15.0908C15.5251 14.6471 15.8001 14.2002 16.0033 13.6752C16.2001 13.1658 16.3376 12.5846 16.3751 11.7346C16.4126 10.8814 16.422 10.6096 16.422 8.4377C16.422 6.26582 16.4126 5.99395 16.3751 5.14082C16.3376 4.29082 16.2001 3.70645 16.0033 3.2002C15.8064 2.66895 15.5345 2.22207 15.0876 1.77832C14.6439 1.33457 14.197 1.05957 13.672 0.856445C13.1626 0.65957 12.5814 0.52207 11.7314 0.48457C10.8751 0.443945 10.6033 0.43457 8.4314 0.43457Z" fill="#FBFBFB"/>
<path d="M8.4314 4.3252C6.16265 4.3252 4.32202 6.16582 4.32202 8.43457C4.32202 10.7033 6.16265 12.5439 8.4314 12.5439C10.7001 12.5439 12.5408 10.7033 12.5408 8.43457C12.5408 6.16582 10.7001 4.3252 8.4314 4.3252ZM8.4314 11.1002C6.95952 11.1002 5.76577 9.90645 5.76577 8.43457C5.76577 6.9627 6.95952 5.76895 8.4314 5.76895C9.90327 5.76895 11.097 6.9627 11.097 8.43457C11.097 9.90645 9.90327 11.1002 8.4314 11.1002Z" fill="#FBFBFB"/>
<path d="M13.6626 4.1625C13.6626 4.69375 13.2314 5.12188 12.7033 5.12188C12.172 5.12188 11.7439 4.69063 11.7439 4.1625C11.7439 3.63125 12.1751 3.20312 12.7033 3.20312C13.2314 3.20312 13.6626 3.63438 13.6626 4.1625Z" fill="#FBFBFB"/>
</g>
<defs>
<clipPath id="clip0_304_13639">
<rect width="16" height="16" fill="white" transform="translate(0.431396 0.43457)"/>
</clipPath>
</defs>
</svg>
