<svg width="17" height="17" viewBox="0 0 17 17" fill="none" xmlns="http://www.w3.org/2000/svg">
<g clip-path="url(#clip0_304_13633)">
<path d="M8.4314 0.43457C4.01316 0.43457 0.431396 4.01633 0.431396 8.43457C0.431396 12.1863 3.01444 15.3344 6.49892 16.1991V10.8794H4.84932V8.43457H6.49892V7.38113C6.49892 4.65825 7.73124 3.39617 10.4045 3.39617C10.9114 3.39617 11.786 3.49569 12.1437 3.59489V5.81089C11.9549 5.79105 11.6269 5.78113 11.2196 5.78113C9.90788 5.78113 9.401 6.27809 9.401 7.56993V8.43457H12.0141L11.5652 10.8794H9.401V16.376C13.3623 15.8976 16.4317 12.5248 16.4317 8.43457C16.4314 4.01633 12.8496 0.43457 8.4314 0.43457Z" fill="#FBFBFB"/>
</g>
<defs>
<clipPath id="clip0_304_13633">
<rect width="16" height="16" fill="white" transform="translate(0.431396 0.43457)"/>
</clipPath>
</defs>
</svg>
