<svg width="19" height="17" viewBox="0 0 19 17" fill="none" xmlns="http://www.w3.org/2000/svg">
<path d="M8.77671 0.520407C8.45521 0.697231 8.39091 0.882092 8.39091 1.55724C8.39091 1.89481 8.3668 2.16808 8.32661 2.16808C8.29446 2.16808 7.80418 2.03949 7.23352 1.88677C6.66286 1.72602 6.18061 1.6135 6.16454 1.63761C6.14846 1.65369 6.27706 1.95911 6.45389 2.3208C7.5952 4.58736 8.1096 6.74943 7.82025 8.13188C7.71577 8.65431 7.09688 9.96441 6.59052 10.7601C6.38155 11.0816 6.22884 11.3951 6.25295 11.4594C6.2851 11.5478 6.52622 11.5719 7.34604 11.5719H8.39091V13.1794H7.16922C6.0922 13.1794 5.90734 13.1633 5.59388 13.0106C5.14378 12.7936 4.84639 12.3355 4.79013 11.813L4.74995 11.4112H0.329346L0.37757 12.0381C0.433833 12.7213 0.674956 13.4929 1.03664 14.1117C1.39029 14.7146 2.24226 15.5103 2.89329 15.8559C4.01854 16.4426 3.97835 16.4346 8.83297 16.4346C13.125 16.4346 13.1812 16.4346 13.551 16.2577C14.1055 16.0086 14.6842 15.4218 15.2549 14.5458C15.5362 14.1278 15.93 13.525 16.139 13.2035C16.4364 12.7534 16.6373 12.5444 17.0714 12.2551C17.3687 12.0542 17.7304 11.8532 17.8671 11.805C18.1162 11.7166 18.1162 11.7166 18.1162 11.1138C18.1162 10.5833 18.1002 10.519 17.9796 10.5592C17.8992 10.5833 16.8785 10.8726 15.705 11.2102L13.5751 11.8291L13.0124 12.3757C12.273 13.1071 12.0801 13.1794 10.9227 13.1794H9.9984V11.5719H10.5932C11.2764 11.5719 11.413 11.4915 12.2007 10.6074C12.8035 9.93227 13.0848 9.52236 13.3982 8.85525C13.6233 8.38907 13.6554 8.23636 13.6474 7.67374C13.6394 6.89411 13.4625 6.38775 12.8758 5.48755C12.4579 4.83652 10.7378 3.0522 10.2556 2.77089L9.9984 2.61818V1.91089C9.9984 1.18752 9.89392 0.769568 9.65279 0.576669C9.45989 0.41592 9.01783 0.38377 8.77671 0.520407Z" fill="#FBFBFB"/>
<path d="M4.98302 3.95241C4.83834 4.18549 3.9703 5.54382 3.05403 6.97449C2.14579 8.40515 1.39831 9.61077 1.39831 9.65096C1.39831 9.69115 2.22617 9.7233 3.43982 9.7233H5.48134L5.89929 8.87936C6.38957 7.90683 6.47798 7.31206 6.30116 6.31542C6.13237 5.367 5.48938 3.53446 5.32863 3.53446C5.28844 3.53446 5.13573 3.72736 4.98302 3.95241Z" fill="#FBFBFB"/>
</svg>
