<?xml version="1.0" standalone="no"?>
<!DOCTYPE svg PUBLIC "-//W3C//DTD SVG 20010904//EN"
 "http://www.w3.org/TR/2001/REC-SVG-20010904/DTD/svg10.dtd">
<svg version="1.0" xmlns="http://www.w3.org/2000/svg"
 width="742.000000pt" height="744.000000pt" viewBox="0 0 742.000000 744.000000"
 preserveAspectRatio="xMidYMid meet">

<g transform="translate(0.000000,744.000000) scale(0.100000,-0.100000)"
fill="#fff" stroke="none">
<path d="M6821 6765 c-90 -20 -170 -47 -371 -128 -96 -38 -269 -107 -385 -152
-453 -178 -2279 -940 -2980 -1243 -1836 -794 -2630 -1140 -2780 -1213 -233
-113 -338 -273 -267 -405 18 -34 97 -101 154 -130 129 -66 378 -141 883 -268
165 -42 363 -94 440 -116 226 -64 330 -71 505 -35 256 54 495 187 1075 601
116 83 338 236 495 341 157 105 431 293 610 418 396 277 1109 753 1173 783 27
13 66 22 93 22 39 0 51 -5 80 -34 42 -42 46 -92 11 -148 -36 -60 -211 -249
-362 -391 -78 -73 -408 -384 -735 -693 -327 -308 -689 -646 -805 -751 -270
-244 -344 -324 -392 -421 -37 -73 -38 -80 -38 -181 0 -100 2 -110 32 -167 18
-34 54 -84 81 -112 32 -33 331 -237 883 -604 459 -305 913 -610 1009 -680 283
-203 447 -296 633 -361 86 -29 101 -32 227 -32 l136 0 76 38 c139 68 249 216
317 423 48 147 82 338 135 749 20 149 89 612 155 1030 355 2252 492 3197 492
3410 -1 213 -56 340 -182 417 -76 47 -260 62 -398 33z"/>
</g>
</svg>
