<svg width="17" height="17" viewBox="0 0 17 17" fill="none" xmlns="http://www.w3.org/2000/svg">
<g clip-path="url(#clip0_304_13644)">
<path d="M16.272 5.23477C16.272 5.23477 16.1158 4.13164 15.6345 3.64727C15.0251 3.00977 14.3439 3.00664 14.0314 2.96914C11.7939 2.80664 8.43452 2.80664 8.43452 2.80664H8.42827C8.42827 2.80664 5.0689 2.80664 2.8314 2.96914C2.5189 3.00664 1.83765 3.00977 1.22827 3.64727C0.747022 4.13164 0.593896 5.23477 0.593896 5.23477C0.593896 5.23477 0.431396 6.53164 0.431396 7.82539V9.03789C0.431396 10.3316 0.590771 11.6285 0.590771 11.6285C0.590771 11.6285 0.747021 12.7316 1.22515 13.216C1.83452 13.8535 2.63452 13.8316 2.99077 13.9004C4.27202 14.0223 8.4314 14.0598 8.4314 14.0598C8.4314 14.0598 11.7939 14.0535 14.0314 13.8941C14.3439 13.8566 15.0251 13.8535 15.6345 13.216C16.1158 12.7316 16.272 11.6285 16.272 11.6285C16.272 11.6285 16.4314 10.3348 16.4314 9.03789V7.82539C16.4314 6.53164 16.272 5.23477 16.272 5.23477ZM6.77827 10.5098V6.01289L11.1001 8.26914L6.77827 10.5098Z" fill="#FBFBFB"/>
</g>
<defs>
<clipPath id="clip0_304_13644">
<rect width="16" height="16" fill="white" transform="translate(0.431396 0.43457)"/>
</clipPath>
</defs>
</svg>
