<svg width="132" height="132" viewBox="0 0 132 132" fill="none" xmlns="http://www.w3.org/2000/svg">
            <g filter="url(#filter0_b_439_4718)">
                <path
                    d="M66 132C102.451 132 132 102.451 132 66C132 29.5492 102.451 0 66 0C29.5492 0 0 29.5492 0 66C0 102.451 29.5492 132 66 132Z"
                    fill="#FBFBFB" fill-opacity="0.5" />
                <path
                    d="M131.5 66C131.5 102.175 102.175 131.5 66 131.5C29.8253 131.5 0.5 102.175 0.5 66C0.5 29.8253 29.8253 0.5 66 0.5C102.175 0.5 131.5 29.8253 131.5 66Z"
                    stroke="url(#paint0_linear_439_4718)" />
            </g>
            <path
                d="M59.1908 37.8562L62.6604 36.3894C62.6604 36.3894 65.5097 32.1462 69.6342 32.2228C69.6342 32.2228 68.1675 31.2194 64.6595 31.7977C64.6595 31.7977 64.2153 30.9667 64.3302 29.205C64.4451 27.4396 65.4867 26.5434 65.4867 26.5434C65.4867 26.5434 64.2727 26.7158 63.2579 26.7158C62.243 26.7158 61.0022 24.6631 61.0022 24.6631C61.0022 24.6631 61.0597 26.486 62.1894 27.4396C63.3191 28.3932 63.143 28.9446 63.0855 30.5071C63.0855 30.5071 61.8141 30.1012 60.5388 30.419C59.2636 30.7369 58.4555 32.1539 58.4555 32.1539C58.4555 32.1539 59.8457 30.7369 61.7528 31.1122C63.66 31.4875 63.3728 33.0194 63.3728 33.0194L59.187 37.8524L59.1908 37.8562Z"
                fill="#2C2C2C" />
            <path
                d="M97.6903 59.7615C97.5563 58.1799 96.2465 58.065 94.55 59.2216C92.8535 60.3781 90.9616 62.7678 90.9616 62.7678C90.9616 62.7678 96.0168 44.9523 91.8501 36.2361C87.6835 27.516 79.5876 25.5131 79.5876 25.5131C79.5876 25.5131 79.3157 23.0813 77.8106 22.8132C76.3056 22.5451 76.0375 22.7328 74.881 22.5451C73.7244 22.3536 73.0696 23.0813 73.0696 23.0813C73.0696 23.0813 72.8015 20.5384 70.5267 19.6116C68.248 18.6887 65.9694 20.1363 65.9694 20.1363C65.9694 20.1363 64.2039 18.2866 61.9636 18.5316C59.7233 18.7767 58.5514 20.7567 58.5514 20.7567C58.5514 20.7567 54.312 19.7456 51.6657 22.4953C51.6657 22.4953 57.0157 21.672 59.1718 23.6634C59.1718 23.6634 60.313 21.5954 62.0325 21.0745C63.7559 20.5537 64.8703 21.8979 64.8703 21.8979C64.8703 21.8979 64.5371 25.5093 67.4247 26.5394C67.3213 26.459 65.395 24.9463 66.1571 22.5796C66.9383 20.1516 69.5693 20.7567 71.71 23.9697C71.71 23.9697 70.9288 24.9808 70.5267 26.1105C70.1169 27.2402 71.0169 29.5802 71.0169 29.5802C71.0169 29.5802 70.8713 26.9071 72.3764 25.7352C73.8814 24.5633 76.9183 25.4441 77.4813 26.0531C78.0481 26.662 76.2673 27.8185 76.0797 29.3657C76.0797 29.3657 74.7776 28.1632 73.3874 27.9755C73.3874 27.9755 75.0954 30.1163 75.0112 31.5026C74.9231 32.8928 73.0006 34.2523 71.9858 34.44C70.9747 34.6276 69.5271 33.6166 68.2825 33.6166C68.2825 33.6166 72.0892 36.5233 73.2878 37.9288C74.4865 39.3304 76.5584 38.8364 79.3042 41.0806C82.0539 43.3209 84.367 46.3463 84.6274 48.7437C84.8878 51.1449 83.7313 51.6657 84.9031 54.243C86.075 56.8166 88.6332 62.2317 89.3685 68.1868C90.1 74.1457 87.8252 76.0528 84.7193 76.769C81.6173 77.4813 82.7356 90.4791 82.4675 93.5619C82.1956 96.6448 80.3842 96.9167 80.4416 92.6735C80.5029 88.4302 80.4071 84.5393 77.4928 84.4819C74.5823 84.4244 74.0806 86.5231 74.138 89.0506C74.1955 91.5782 73.8125 93.3705 72.3266 91.0191C70.8445 88.6638 69.9561 88.706 68.3553 88.706L66.0154 92.4092L63.6716 88.706C62.0708 88.706 61.1824 88.6677 59.7003 91.0191C58.2144 93.3705 57.8314 91.5782 57.8889 89.0506C57.9463 86.5269 57.4446 84.4244 54.5341 84.4819C51.6236 84.5393 51.5278 88.4341 51.5853 92.6735C51.6427 96.9167 49.8313 96.6448 49.5594 93.5619C49.2875 90.4791 50.4057 77.4813 47.3037 76.769C44.1979 76.0528 41.9231 74.1418 42.6546 68.1868C43.3898 62.2278 45.948 56.8166 47.1199 54.243C48.2918 51.6657 47.1352 51.1449 47.3957 48.7437C47.6561 46.3463 49.9692 43.3209 52.7189 41.0806C55.4647 38.8402 58.222 39.2577 59.4207 37.856C59.7271 37.4922 60.3245 37.0288 60.8683 36.5424L54.9132 36.619C55.1775 36.0178 55.9128 34.8153 57.7893 34.034C57.7893 34.034 54.8979 34.3519 54.783 31.2269C54.6681 28.1019 55.8515 26.0799 55.8515 26.0799C55.8515 26.0799 53.9137 27.0641 53.075 31.0278C52.2363 34.9914 51.5278 35.4548 50.176 35.4548C48.8241 35.4548 47.1467 34.4706 47.1467 34.4706C47.1467 34.4706 47.5527 36.2054 49.5173 36.7837C51.4857 37.362 52.9869 36.351 52.9869 36.351C52.9869 36.351 52.8988 37.5075 50.9342 38.7215C48.9658 39.9355 48.1846 43.1754 47.5488 43.5239C46.9131 43.8724 46.1893 42.5397 46.017 41.3563C46.017 41.3563 40.9848 42.7158 43.1524 38.0283C43.1524 38.0283 41.2721 38.7521 41.2453 40.9772C41.2146 43.206 43.4741 43.6656 44.8911 42.2792C44.8911 42.2792 44.7455 44.3626 45.7298 45.8676C45.7298 45.8676 44.8336 47.1965 45.0634 48.2114C45.2932 49.2224 45.2932 49.9768 44.4277 49.3679C43.5584 48.759 43.6771 48.0658 42.375 47.6024C42.375 47.6024 43.1256 48.3262 43.1256 50.3521C43.1256 52.378 43.4435 54.2584 42.7503 54.8366C42.0571 55.4149 41.1304 55.8477 40.261 54.2009C39.3917 52.5503 39.1619 51.9453 39.3917 50.5283C39.6215 49.1113 39.5372 47.1735 39.5372 47.1735C39.5372 47.1735 39.4223 48.1577 38.8441 48.3875C38.2658 48.6173 38.2083 46.4497 37.7143 45.6685C37.2241 44.8872 37.9441 45.8408 38.959 46.1893C39.97 46.5378 41.3869 44.9753 41.3869 44.9753C41.3869 44.9753 38.8709 44.6843 37.5573 42.486C36.2399 40.2878 37.7143 36.3548 44.106 36.3816C44.106 36.3816 42.2563 34.1834 42.6584 30.8861C43.0643 27.5887 46.0706 27.0105 46.0706 27.0105C46.0706 27.0105 45.32 29.7602 45.5804 31.5524C45.5804 31.5524 45.2625 26.4628 51.2483 25.942C51.2483 25.942 49.2224 24.7548 45.4923 25.3063C41.7623 25.8577 38.8977 30.6295 41.4138 34.62C41.4138 34.62 36.2361 34.3902 35.6272 41.5899C35.6272 41.5899 33.9192 46.5952 37.8828 50.3253C37.8828 50.3253 36.9292 52.5235 37.8254 54.2584C38.4037 55.3804 39.2117 56.3302 39.7134 56.8625C40.3721 60.3513 41.0576 62.7716 41.0576 62.7716C41.0576 62.7716 39.1658 60.3819 37.4692 59.2254C35.7727 58.0688 34.463 58.1837 34.3289 59.7654C34.1987 61.347 34.4208 69.7148 34.3442 71.8326C34.2676 73.958 34.3442 74.9575 38.3156 78.8944C42.2869 82.8275 42.7158 81.4756 44.06 81.6326C45.4119 81.7858 45.3698 84.0261 46.1051 91.6203C46.8404 99.2183 51.4283 105.736 51.4283 105.736C51.4283 104.848 51.6197 100.413 52.2784 98.9464C52.9333 97.4797 53.5499 98.9847 54.9362 104.151C56.3264 109.321 57.9463 113.602 58.8731 113.488C59.796 113.369 59.7194 109.474 61.4964 103.19C63.147 97.3418 65.6669 96.9014 66.0115 96.8707H66.0192C66.3639 96.9052 68.8876 97.3418 70.5382 103.19C72.3113 109.478 72.2347 113.369 73.1615 113.488C74.0844 113.602 75.7043 109.321 77.0945 104.151C78.4808 98.9847 79.1012 97.4797 79.7561 98.9464C80.411 100.413 80.6025 104.848 80.6025 105.736C80.6025 105.736 85.1942 99.2183 85.9257 91.6203C86.6609 84.0261 86.6188 81.7858 87.9707 81.6326C89.3225 81.4794 89.7438 82.8275 93.7151 78.8944C97.6865 74.9614 97.7631 73.958 97.6865 71.8326C97.6061 69.7109 97.832 61.3432 97.7018 59.7654L97.6903 59.7615ZM38.936 75.8039C38.3003 75.4554 36.508 70.6569 36.508 70.6569V61.6917C36.508 61.6917 39.1121 64.3533 39.633 67.6506C40.1538 70.9479 39.5755 76.1562 38.9398 75.8077L38.936 75.8039ZM95.427 70.6569C95.427 70.6569 93.6309 75.4554 92.999 75.8039C92.3633 76.1524 91.785 70.9479 92.3058 67.6468C92.8267 64.3495 95.4308 61.6879 95.4308 61.6879V70.653L95.427 70.6569Z"
                fill="#2C2C2C" />
            <path
                d="M49.1188 28.4849C49.1188 28.4849 47.4223 29.6414 47.8474 31.9545C48.2725 34.2676 50.4707 33.9995 50.4707 33.9995C50.4707 33.9995 47.8857 32.3413 49.1227 28.4849H49.1188Z"
                fill="#2C2C2C" />
            <path
                d="M58.8385 24.667C58.8385 24.667 59.727 26.172 59.2636 27.8303C58.8002 29.4885 56.1003 29.2587 56.1003 29.2587C56.1003 29.2587 58.2986 30.6872 59.8419 29.9136C61.3852 29.1438 61.5652 26.8805 58.8385 24.667Z"
                fill="#2C2C2C" />
            <path
                d="M45.5037 36.623C45.5037 36.623 46.0092 39.1047 47.587 39.8821C47.587 39.8821 43.9718 40.4527 45.5037 36.623Z"
                fill="#2C2C2C" />
            <path
                d="M46.1395 68.4853C46.1395 68.4853 44.868 69.615 44.868 70.4537C44.868 71.2924 46.576 70.1627 46.576 70.1627C46.576 70.1627 45.4463 71.8975 46.0858 73.4025C46.7216 74.9076 49.1534 72.7362 49.1534 72.7362C49.1534 72.7362 48.7206 73.3144 48.893 73.7472C49.0653 74.1799 49.6742 74.4978 49.6742 74.4978C49.6742 74.4978 47.8819 75.9148 45.7105 75.482C43.543 75.0493 44.6689 72.0239 44.6689 72.0239C44.6689 72.0239 41.4596 69.6112 46.1433 68.4814L46.1395 68.4853Z"
                fill="#2C2C2C" />
            <path
                d="M68.4968 73.3451C67.1373 70.7716 65.8352 71.0014 65.8352 71.0014C65.8352 71.0014 64.5332 70.7716 63.1736 73.3451C61.8141 75.9186 60.1061 77.1633 60.1061 78.6109C60.1061 80.0585 61.726 81.215 62.8252 80.4912C63.9243 79.7674 64.56 78.9287 65.8314 78.9287C67.1029 78.9287 67.7386 79.7674 68.8377 80.4912C69.9368 81.215 71.5567 80.0585 71.5567 78.6109C71.5567 77.1633 69.8487 75.9225 68.4892 73.3451H68.4968Z"
                fill="#2C2C2C" />
            <path
                d="M63.438 64.2384C62.9172 60.2747 59.4169 55.2426 52.8797 58.6242C52.8797 58.6242 48.5675 61.6611 48.0812 66.406C47.5871 71.1471 50.8577 72.8551 56.0621 72.3343C61.2704 71.8134 63.9589 68.1983 63.438 64.2384ZM56.2192 66.8387C54.9324 66.8387 53.8907 65.6171 53.8907 64.1082C53.8907 62.5993 54.9324 61.3738 56.2192 61.3738C57.5059 61.3738 58.5476 62.5955 58.5476 64.1082C58.5476 65.6209 57.5059 66.8387 56.2192 66.8387Z"
                fill="#2C2C2C" />
            <path
                d="M80.8207 55.733C80.568 55.5109 80.3803 55.2275 80.2386 54.9058C80.1046 54.5879 80.0242 54.2126 80.0969 53.8182C80.1544 53.4237 80.3842 53.0522 80.679 52.788C80.9663 52.5199 81.445 52.3208 81.8969 52.3935C82.3449 52.4625 82.6973 52.6999 82.9615 52.9642C83.2257 53.2361 83.4249 53.5424 83.5513 53.8948C83.6087 54.0786 83.67 54.2509 83.6585 54.4884C83.647 54.7105 83.5628 54.9096 83.4479 55.0666C83.2028 55.373 82.8849 55.5339 82.5556 55.5951C82.7853 55.3615 82.9883 55.1088 83.0572 54.8522C83.1338 54.5918 83.0572 54.4347 82.9117 54.1935C82.6207 53.7454 82.1534 53.3395 81.7743 53.2897C81.4411 53.2131 80.9624 53.5578 80.7786 53.9943C80.5871 54.4539 80.6637 55.0973 80.8246 55.7292L80.8207 55.733Z"
                fill="#2C2C2C" />
            <path
                d="M77.7914 55.9435C77.508 55.9971 77.2055 55.9243 76.9336 55.7673C76.6655 55.6027 76.451 55.3346 76.3246 55.0359C76.1906 54.7372 76.1638 54.4193 76.1638 54.1168C76.1753 53.818 76.2136 53.5193 76.3285 53.2168C76.4434 52.9181 76.6348 52.5887 76.991 52.3896C77.1633 52.29 77.3663 52.2402 77.5616 52.2402C77.7569 52.2402 77.9331 52.2939 78.0901 52.3666C78.7028 52.6806 78.9824 53.2934 78.9709 53.8449C78.6569 53.3968 78.2433 53.0713 77.8603 53.0023C77.6688 52.9717 77.531 53.0176 77.4352 53.0981C77.3357 53.1785 77.2476 53.3317 77.1786 53.5232C77.1135 53.7146 77.0791 53.9444 77.0484 54.1704C77.0331 54.3925 77.0101 54.6146 77.0484 54.8176C77.0982 55.2235 77.3242 55.6295 77.799 55.9435H77.7914Z"
                fill="#2C2C2C" />
            <path
                d="M81.4182 56.9659C81.4603 57.3795 81.6135 57.6438 81.8011 57.7548C81.8931 57.8161 82.0003 57.8697 82.1267 57.9118C82.253 57.9616 82.3756 57.9923 82.4598 57.9961C82.5479 57.9961 82.5862 57.9961 82.6475 57.9616C82.7088 57.9272 82.7892 57.8429 82.8466 57.7204C82.973 57.4753 83.0458 57.1459 83.0573 56.7515C83.3751 57.0042 83.5513 57.4217 83.5245 57.8774C83.5053 58.1033 83.4287 58.3599 83.2296 58.5744C83.0343 58.7965 82.7088 58.9114 82.4369 58.8999C82.1611 58.8922 81.9352 58.808 81.7437 58.6969C81.5484 58.5897 81.3531 58.4288 81.2229 58.2106C81.0888 57.9961 81.0429 57.728 81.0888 57.5021C81.1424 57.28 81.2458 57.0885 81.4182 56.9659Z"
                fill="#2C2C2C" />
            <path
                d="M76.2137 72.3344C81.4182 72.8552 84.6887 71.151 84.1947 66.4061C83.7045 61.6612 79.3961 58.6243 79.3961 58.6243C72.8589 55.2389 69.3586 60.2748 68.8378 64.2385C68.317 68.1984 71.0054 71.8135 76.2137 72.3344ZM73.7244 64.1083C73.7244 62.5994 74.7661 61.3739 76.0528 61.3739C77.3396 61.3739 78.3813 62.5956 78.3813 64.1083C78.3813 65.6172 77.3396 66.8388 76.0528 66.8388C74.7661 66.8388 73.7244 65.6172 73.7244 64.1083Z"
                fill="#2C2C2C" />
            <path
                d="M65.954 41.6743C62.7294 41.6743 60.1099 44.2861 60.1099 47.5183C60.1099 50.7506 62.7256 53.3624 65.954 53.3624C69.1824 53.3624 71.798 50.7429 71.798 47.5183C71.798 44.2938 69.1824 41.6743 65.954 41.6743ZM65.954 49.2493C64.2574 49.2493 62.8864 47.8745 62.8864 46.1818C62.8864 44.4891 64.2574 43.1143 65.954 43.1143C67.6505 43.1143 69.0215 44.4853 69.0215 46.1818C69.0215 47.8783 67.6467 49.2493 65.954 49.2493Z"
                fill="#0F5B5B" />
            <path
                d="M65.954 41.6743C62.7294 41.6743 60.1099 44.2861 60.1099 47.5183C60.1099 50.7506 62.7256 53.3624 65.954 53.3624C69.1824 53.3624 71.798 50.7429 71.798 47.5183C71.798 44.2938 69.1824 41.6743 65.954 41.6743ZM65.954 49.2493C64.2574 49.2493 62.8864 47.8745 62.8864 46.1818C62.8864 44.4891 64.2574 43.1143 65.954 43.1143C67.6505 43.1143 69.0215 44.4853 69.0215 46.1818C69.0215 47.8783 67.6467 49.2493 65.954 49.2493Z"
                fill="#0F5B5B" />
            <path
                d="M84.6235 48.7439C84.6006 48.5563 84.5738 48.3686 84.524 48.1771L76.9068 44.4202C76.0375 39.4187 71.4649 35.6006 65.9541 35.6006C60.4432 35.6006 55.6983 39.5604 54.9515 44.7075L47.3573 48.989C47.2654 50.2298 47.5565 50.9536 47.6254 51.7961L55.3536 49.326C56.7667 53.6114 60.9794 56.7172 65.9541 56.7172C70.9288 56.7172 74.8043 53.8488 76.3707 49.8277L84.5201 50.8425C84.6197 50.2681 84.7193 49.6362 84.6235 48.7477V48.7439ZM65.9541 55.3232C61.1287 55.3232 57.2186 51.4093 57.2186 46.5878C57.2186 41.7663 61.1287 37.8524 65.9541 37.8524C70.7794 37.8524 74.6895 41.7625 74.6895 46.5878C74.6895 51.4132 70.7756 55.3232 65.9541 55.3232Z"
                fill="#0F5B5B" />
            <path
                d="M84.6235 48.7439C84.6006 48.5563 84.5738 48.3686 84.524 48.1771L76.9068 44.4202C76.0375 39.4187 71.4649 35.6006 65.9541 35.6006C60.4432 35.6006 55.6983 39.5604 54.9515 44.7075L47.3573 48.989C47.2654 50.2298 47.5565 50.9536 47.6254 51.7961L55.3536 49.326C56.7667 53.6114 60.9794 56.7172 65.9541 56.7172C70.9288 56.7172 74.8043 53.8488 76.3707 49.8277L84.5201 50.8425C84.6197 50.2681 84.7193 49.6362 84.6235 48.7477V48.7439ZM65.9541 55.3232C61.1287 55.3232 57.2186 51.4093 57.2186 46.5878C57.2186 41.7663 61.1287 37.8524 65.9541 37.8524C70.7794 37.8524 74.6895 41.7625 74.6895 46.5878C74.6895 51.4132 70.7756 55.3232 65.9541 55.3232Z"
                fill="#0F5B5B" />
            <path
                d="M65.954 41.6743C62.7294 41.6743 60.1099 44.2861 60.1099 47.5183C60.1099 50.7506 62.7256 53.3624 65.954 53.3624C69.1824 53.3624 71.798 50.7429 71.798 47.5183C71.798 44.2938 69.1824 41.6743 65.954 41.6743ZM65.954 49.2493C64.2574 49.2493 62.8864 47.8745 62.8864 46.1818C62.8864 44.4891 64.2574 43.1143 65.954 43.1143C67.6505 43.1143 69.0215 44.4853 69.0215 46.1818C69.0215 47.8783 67.6467 49.2493 65.954 49.2493Z"
                fill="#0F5B5B" />
            <path
                d="M65.954 41.6743C62.7294 41.6743 60.1099 44.2861 60.1099 47.5183C60.1099 50.7506 62.7256 53.3624 65.954 53.3624C69.1824 53.3624 71.798 50.7429 71.798 47.5183C71.798 44.2938 69.1824 41.6743 65.954 41.6743ZM65.954 49.2493C64.2574 49.2493 62.8864 47.8745 62.8864 46.1818C62.8864 44.4891 64.2574 43.1143 65.954 43.1143C67.6505 43.1143 69.0215 44.4853 69.0215 46.1818C69.0215 47.8783 67.6467 49.2493 65.954 49.2493Z"
                fill="#0F5B5B" />
            <path
                d="M84.6235 48.7439C84.6006 48.5563 84.5738 48.3686 84.524 48.1771L76.9068 44.4202C76.0375 39.4187 71.4649 35.6006 65.9541 35.6006C60.4432 35.6006 55.6983 39.5604 54.9515 44.7075L47.3573 48.989C47.2654 50.2298 47.5565 50.9536 47.6254 51.7961L55.3536 49.326C56.7667 53.6114 60.9794 56.7172 65.9541 56.7172C70.9288 56.7172 74.8043 53.8488 76.3707 49.8277L84.5201 50.8425C84.6197 50.2681 84.7193 49.6362 84.6235 48.7477V48.7439ZM65.9541 55.3232C61.1287 55.3232 57.2186 51.4093 57.2186 46.5878C57.2186 41.7663 61.1287 37.8524 65.9541 37.8524C70.7794 37.8524 74.6895 41.7625 74.6895 46.5878C74.6895 51.4132 70.7756 55.3232 65.9541 55.3232Z"
                fill="#0F5B5B" />
            <path
                d="M84.6235 48.7439C84.6006 48.5563 84.5738 48.3686 84.524 48.1771L76.9068 44.4202C76.0375 39.4187 71.4649 35.6006 65.9541 35.6006C60.4432 35.6006 55.6983 39.5604 54.9515 44.7075L47.3573 48.989C47.2654 50.2298 47.5565 50.9536 47.6254 51.7961L55.3536 49.326C56.7667 53.6114 60.9794 56.7172 65.9541 56.7172C70.9288 56.7172 74.8043 53.8488 76.3707 49.8277L84.5201 50.8425C84.6197 50.2681 84.7193 49.6362 84.6235 48.7477V48.7439ZM65.9541 55.3232C61.1287 55.3232 57.2186 51.4093 57.2186 46.5878C57.2186 41.7663 61.1287 37.8524 65.9541 37.8524C70.7794 37.8524 74.6895 41.7625 74.6895 46.5878C74.6895 51.4132 70.7756 55.3232 65.9541 55.3232Z"
                fill="#0F5B5B" />
            <defs>
                <filter id="filter0_b_439_4718" x="-24" y="-24" width="180" height="180" filterUnits="userSpaceOnUse"
                    color-interpolation-filters="sRGB">
                    <feFlood flood-opacity="0" result="BackgroundImageFix" />
                    <feGaussianBlur in="BackgroundImageFix" stdDeviation="12" />
                    <feComposite in2="SourceAlpha" operator="in" result="effect1_backgroundBlur_439_4718" />
                    <feBlend mode="normal" in="SourceGraphic" in2="effect1_backgroundBlur_439_4718" result="shape" />
                </filter>
                <linearGradient id="paint0_linear_439_4718" x1="66" y1="0" x2="66" y2="132" gradientUnits="userSpaceOnUse">
                    <stop stop-color="#3aacba" />
                    <stop offset="1" stop-color="#0F5B5B" />
                </linearGradient>
            </defs>
        </svg>